<svg xmlns="http://www.w3.org/2000/svg" viewBox="0 0 1361.46 689.84"><defs><style>.cls-1,.cls-15{fill:#fff;}.cls-2{fill:#221e20;}.cls-3{fill:#5a4b43;}.cls-4{fill:#44ac45;}.cls-5{fill:#333;}.cls-6{fill:#5c5b5c;}.cls-7{fill:#e1a208;}.cls-8{fill:#f3bb08;}.cls-9{fill:#019639;}.cls-10{fill:#b9aebe;}.cls-11{font-size:154.6px;}.cls-11,.cls-15{font-family:Orbitron-Black, Orbitron;font-weight:800;}.cls-12{letter-spacing:-0.01em;}.cls-13{letter-spacing:-0.01em;}.cls-14{letter-spacing:-0.02em;}.cls-15{font-size:127.45px;}.cls-16{letter-spacing:0.01em;}.cls-17{letter-spacing:-0.01em;}.cls-18{letter-spacing:0em;}.cls-19{letter-spacing:-0.02em;}</style></defs><g id="Camada_2" data-name="Camada 2"><g id="Camada_1-2" data-name="Camada 1"><rect x="79.82" y="400.31" width="415.32" height="26.86"/><path class="cls-1" d="M483.19,384.76v15.55H94.76V384.76a8.33,8.33,0,0,1,8.34-8.32H474.85A8.32,8.32,0,0,1,483.19,384.76Z"/><path d="M504.11,373.69V609.35q-8.17,9.33-16.86,17.81h-4.06a14,14,0,0,0,0-1.8V381.78a8.33,8.33,0,0,0-8.34-8.33H103.1a8.34,8.34,0,0,0-8.34,8.33V627.16H90.68c-5.75-5.68-11.38-11.65-16.83-17.81V373.72A27.14,27.14,0,0,1,101,346.59H477A27.12,27.12,0,0,1,504.11,373.69Z"/><rect class="cls-1" x="94.76" y="439.12" width="388.43" height="158.2"/><rect class="cls-2" x="73.85" y="597.31" width="430.26" height="29.85"/><path class="cls-3" d="M150.56,643.14,10.42,655.28a3.35,3.35,0,0,1-3.63-3l-2-23.32a3.34,3.34,0,0,1,3.05-3.62L148,613.17Z"/><path class="cls-2" d="M20,660A19.87,19.87,0,0,1,.22,641.93l-.15-1.72a19.86,19.86,0,0,1,18.06-21.47l135-11.69,3.58,41.23L21.71,660C21.13,660,20.56,660,20,660Zm122.83-40.76L19.11,630a8.55,8.55,0,0,0-7.77,9.24l.15,1.72a8.6,8.6,0,0,0,9.25,7.77L144.44,638Z"/><path class="cls-3" d="M428.65,643.14l140.14,12.14a3.34,3.34,0,0,0,3.63-3l2-23.32a3.34,3.34,0,0,0-3.05-3.62L431.25,613.17Z"/><path class="cls-2" d="M557.5,660l-135-11.69,3.58-41.23,135,11.69a19.86,19.86,0,0,1,18.06,21.47l-.15,1.72A19.87,19.87,0,0,1,559.23,660C558.65,660,558.08,660,557.5,660ZM434.77,638l123.71,10.72a8.6,8.6,0,0,0,9.24-7.77l.15-1.72A8.55,8.55,0,0,0,560.1,630L436.4,619.28Z"/><path class="cls-2" d="M414.47,598.48v-98a5.73,5.73,0,0,0-3-5.21,6,6,0,0,0-8.94,5.25v98a6,6,0,0,0,8.94,5.25A5.74,5.74,0,0,0,414.47,598.48Z"/><path class="cls-2" d="M414.35,490.06a1.78,1.78,0,0,0-.24-.12,12.34,12.34,0,0,0-11.08-.18,11.45,11.45,0,0,0-6.49,10.52v98.16a11.71,11.71,0,0,0,1,4.83,11.95,11.95,0,0,0,22.38-1.43,11.51,11.51,0,0,0,.5-3.4v-98A12,12,0,0,0,414.35,490.06Z"/><path d="M571.68,623c-.73-7.49-3.13-14.72-7.82-20V578.8l-2-2.45c-68.93-129.75-130.14-175-143.85-184-1.56-1.05-2.49-1.58-2.77-1.75a11.15,11.15,0,0,0-9.53-.79,11.27,11.27,0,0,0-5.91,4.91,10.78,10.78,0,0,0-1.47,4.66,11.29,11.29,0,0,0,5.57,10.76,1,1,0,0,0,.31.17c4.3,2.77,52.19,34.32,110.88,129.67,2.92,4.77,5.88,9.68,8.88,14.8,5.46,9.32,11,19.2,16,29.65v8.22c-11-3.45-27.39-7.26-43.68-6.89l.11-5.09L494.73,578c-.4-.68-2.69-4.52-6.59-10.37-2.69-4-6.14-8.9-10.24-14.32-14.39-19.12-37-44.76-63.86-60-.06,0-.14-.08-.23-.11a106.61,106.61,0,0,0-20-8.9,11.27,11.27,0,0,0-8.65.71,11.41,11.41,0,0,0-5.57,6.58,11.27,11.27,0,0,0,7.33,14.24A75.8,75.8,0,0,1,397.19,510c1.89.9,3.79,1.92,5.65,3s3.79,2.23,5.66,3.45,3.78,2.54,5.65,3.92,3.79,2.83,5.65,4.35c27.23,22,48.49,53.8,53.84,62.14l-.09,2.9a24.5,24.5,0,0,0-6.25,4.69A32.14,32.14,0,0,0,459.67,608a19.44,19.44,0,0,0-.51,1.89,47.31,47.31,0,0,0-1.07,5.59c-.26,1.78-.43,3.67-.54,5.62a96.85,96.85,0,0,0,.65,15.9c.08,1,.2,2,.37,3a47.12,47.12,0,0,0,1.38,5.79,10.41,10.41,0,0,0,.43,1.3,40.39,40.39,0,0,0,1.86,4.58c4.27,9,12.33,17.48,26.21,17.93a16.78,16.78,0,0,0,5-.34,30.87,30.87,0,0,0,15,4.38,22.08,22.08,0,0,0,4.72-.51,20.8,20.8,0,0,0,6.08-2.4,24.92,24.92,0,0,0,11.25,2.91,21.86,21.86,0,0,0,4-.42,18.84,18.84,0,0,0,5.54-2.07c5.71,1.39,10.94.94,15.16-1a21.37,21.37,0,0,0,11-11.41,24.25,24.25,0,0,0,1.18-3.22c.34-1,.85-2.69,1.45-4.83a92.84,92.84,0,0,0,3.13-19A60.75,60.75,0,0,0,571.68,623Zm-83.63,23.44-2.63-.71a10.07,10.07,0,0,1-2.68-3.53,22.46,22.46,0,0,1-2-7.31,85.12,85.12,0,0,1-.59-11.78,40.13,40.13,0,0,1,.56-5.62,19.33,19.33,0,0,1,1.64-5.54,7.2,7.2,0,0,1,1.11-1.63,1.65,1.65,0,0,1,.39-.4l3.08-.56,2.72-.43c-.11.17-.23.34-.34.48a12.16,12.16,0,0,0-1.5,3,11,11,0,0,0-.39,5.43c0,.08,0,.14,0,.22.37,2,.65,4,.91,5.74,1.3,9.37,1.13,15.3.59,18.92A17.82,17.82,0,0,1,488.05,646.39Zm21.6-32.48a11.23,11.23,0,0,0-2.26-5.06c3.25.31,6.5.82,9.67,1.39a11.26,11.26,0,0,0-7.1,4.06,1.77,1.77,0,0,0-.19.23.76.76,0,0,0-.06-.25A1.51,1.51,0,0,0,509.65,613.91Zm21.92,2.26a11.87,11.87,0,0,0-1.9,2.43,10.72,10.72,0,0,0-1.07-2.69,11.35,11.35,0,0,0-3.79-4c3.31.79,6.42,1.63,9.19,2.48A11.47,11.47,0,0,0,531.57,616.17Z"/><path class="cls-2" d="M166.47,598.48v-98a5.73,5.73,0,0,1,3-5.21,6,6,0,0,1,9,5.25v98a6,6,0,0,1-9,5.25A5.74,5.74,0,0,1,166.47,598.48Z"/><path class="cls-2" d="M184.4,500.56a11.67,11.67,0,0,0-4.08-9.12,12.06,12.06,0,0,0-13.43-1.53c-.36.21-.74.42-1.1.66a12,12,0,0,0-5.29,9.91v98A11.37,11.37,0,0,0,161,602a11.93,11.93,0,0,0,22.2,1.55,11.58,11.58,0,0,0,1.16-5.07Z"/><path d="M202.48,491.53a11.35,11.35,0,0,0-5.6-6.58,11.16,11.16,0,0,0-8.6-.71,108.06,108.06,0,0,0-20,8.87c-.34.2-.71.4-1.05.62-26.46,15.26-48.74,40.53-63,59.43-4.1,5.42-7.52,10.33-10.21,14.32-3.93,5.87-6.24,9.74-6.64,10.39l-1.72,2.8.11,5.11c-16.26-.31-32.68,3.44-44.76,6.89v-8.22c6.17-10.51,11.71-20.42,17.19-29.77,3-5.11,6-10,8.91-14.8,54-87.69,98.78-121.36,109-128.31,1.36-.93,2.12-1.38,2.18-1.41a11.36,11.36,0,0,0,4-15.42,11.32,11.32,0,0,0-9.33-5.59,11,11,0,0,0-6.08,1.47c-.39.22-2,1.18-4.78,3.08-16.9,11.66-75.82,58.4-141.81,182.59l-3.18,2.51V603a45.05,45.05,0,0,0-6.46,18,51.8,51.8,0,0,0-.51,7.26A89.1,89.1,0,0,0,14,653.05c.29,1,.54,1.81.74,2.4a29.3,29.3,0,0,0,1.64,4.24A21.26,21.26,0,0,0,26.88,670.2c4.35,2,9.44,2.4,15.21,1a17.63,17.63,0,0,0,5.48,2,20.37,20.37,0,0,0,4,.45,24.8,24.8,0,0,0,11.22-2.91,21.15,21.15,0,0,0,6.14,2.4,21.4,21.4,0,0,0,4.69.51,31,31,0,0,0,15-4.38,16.65,16.65,0,0,0,5,.34c14.05-.48,22.14-9.15,26.38-18.19a45.24,45.24,0,0,0,2.23-5.87c.08-.26.14-.51.23-.76a47.64,47.64,0,0,0,1.1-5c.11-.93.22-1.78.28-2.6a95.84,95.84,0,0,0,.62-16.35c-.11-2-.28-3.82-.53-5.6a49.8,49.8,0,0,0-1.11-5.59.31.31,0,0,0,0-.2,32.58,32.58,0,0,0-8-15.08,24.82,24.82,0,0,0-6.28-4.69l-.06-2.9c5.35-8.34,26.61-40.19,53.8-62.14,1.87-1.5,3.74-3,5.66-4.35s3.73-2.68,5.65-3.9,3.74-2.4,5.66-3.47,3.76-2.06,5.65-3a74.61,74.61,0,0,1,10.32-4.18,11.33,11.33,0,0,0,7.33-14.24ZM48.05,614.36c2.77-.82,5.85-1.67,9.19-2.48a11.56,11.56,0,0,0-3.68,3.78,11.74,11.74,0,0,0-1.21,2.94A10.89,10.89,0,0,0,50.23,616,9.18,9.18,0,0,0,48.05,614.36Zm17-4.12c3.14-.57,6.37-1,9.65-1.39a10.93,10.93,0,0,0-2.27,5.06c0,.06,0,.08,0,.14s-.06.34-.09.48a2.43,2.43,0,0,0-.4-.45A11.18,11.18,0,0,0,65,610.24Zm31.93,35.24-2.88.85a17.93,17.93,0,0,1-.88-3.9c-.51-3.67-.62-9.6.65-18.89.26-1.78.57-3.7.93-5.73v0a10.81,10.81,0,0,0-.48-5.62,11,11,0,0,0-1.41-2.8,4.88,4.88,0,0,0-.37-.45c1,.11,1.9.25,2.83.42l3,.54a2.58,2.58,0,0,1,.42.4l0,0a5.71,5.71,0,0,1,.93,1.39,19.55,19.55,0,0,1,1.76,5.53,45.45,45.45,0,0,1,.53,5.62,77.88,77.88,0,0,1-.56,12.18,22.71,22.71,0,0,1-1.9,6.89A10.6,10.6,0,0,1,96.94,645.48Z"/><path class="cls-4" d="M474.74,635.61c.06.69,1.64,17.31,14.43,17.57v-.51l.56.17a3.19,3.19,0,0,0,1.85-1.25c1.84-2.17,5.63-9.93,1.32-34.6A5.68,5.68,0,1,1,504,614.81c3.32,18.86,2.9,32.16-1.33,40.36,2.27,1.13,4.82,2,6.81,1.56.54-.15,2.05-.46,3.55-3.07V621.48a5.69,5.69,0,0,1,3.07-5.21,6,6,0,0,1,8.88,5.3v32.66c2.09,1.48,4.7,2.71,6.31,2.39,1.13-.24,2-1.53,2.66-2.82V624.31a5.67,5.67,0,0,1,3.06-5.21,6,6,0,0,1,8.89,5.29v31.05a6.24,6.24,0,0,0,3.13-.25c1.26-.55,2.24-2,3-4.4,3.33-10.21,7.29-32.74-1.78-37.31-3.08-1.26-37.5-15-64.53-10.1l-.55.09-3.59.66a8.77,8.77,0,0,0-2.61,2C476.44,608.83,472.53,616.3,474.74,635.61Z"/><path class="cls-4" d="M106.2,635.61c-.06.69-1.64,17.31-14.42,17.57v-.51l-.57.17a3.24,3.24,0,0,1-1.85-1.25c-1.84-2.17-5.62-9.93-1.31-34.6a5.77,5.77,0,0,0-2.77-6.16,5.71,5.71,0,0,0-8.38,4C73.58,633.67,74,647,78.23,655.17c-2.27,1.13-4.82,2-6.81,1.56-.54-.15-2-.46-3.55-3.07V621.48a5.67,5.67,0,0,0-3.07-5.21,6,6,0,0,0-8.88,5.3v32.66c-2.09,1.48-4.69,2.71-6.31,2.39-1.12-.24-2-1.53-2.65-2.82V624.31a5.68,5.68,0,0,0-3.07-5.21A6,6,0,0,0,35,624.39v31.05a6.27,6.27,0,0,1-3.14-.25c-1.26-.55-2.24-2-2.95-4.4-3.34-10.21-7.3-32.74,1.78-37.31,3.07-1.26,37.49-15,64.52-10.1l.55.09,3.59.66a8.8,8.8,0,0,1,2.62,2C104.5,608.83,108.41,616.3,106.2,635.61Z"/><path class="cls-5" d="M453.31,609.87v38.57A11.56,11.56,0,0,1,441.75,660H373.6a32.87,32.87,0,0,0-29,17.39l-3.48,6.49H237.84l-3.56-6.68A33.72,33.72,0,0,0,224.57,666h114l3.19-6.49c5.23-10.72,15.46-17.39,26.59-17.39h61.44a11.52,11.52,0,0,0,11.54-11.52V598.38l.75,0A11.62,11.62,0,0,1,453.31,609.87Z"/><path class="cls-6" d="M441.36,603.81v26.72a11.56,11.56,0,0,1-11.56,11.55H361.64a32.87,32.87,0,0,0-29,17.39L329.12,666H224.41a3.4,3.4,0,0,0-.28-.21A33.38,33.38,0,0,0,205.31,660H139.19a11.56,11.56,0,0,1-11.56-11.55v-33.7a11.15,11.15,0,0,1,11.19-10.87C191,603,244.41,575.73,244.41,575.73L290.87,573l46.42,2.78S389.62,602.48,441.36,603.81Z"/><path d="M459,608.09a9.59,9.59,0,0,0-.45-2,17.06,17.06,0,0,0-4.21-7.44,16.71,16.71,0,0,0-13.32-5.24A62.19,62.19,0,0,1,424.4,592c-3.72-.76-7.57-1.28-11.3-2-1.89-.38-3.75-.78-5.62-1.22s-3.81-.87-5.67-1.36-3.79-1-5.65-1.48a299,299,0,0,1-45.74-17.1c-6.72-3.15-10.7-5.33-10.84-5.41l-1.08-.61-6.61-.44-20.36-1.33-21-1.36-21.08,1.36-20.33,1.33-6.61.44-1.11.61c-.14.08-4.12,2.26-10.87,5.44A297.15,297.15,0,0,1,184,586.18c-1.87.53-3.76,1-5.65,1.48s-3.73.9-5.62,1.31-3.76.84-5.68,1.18c-2.91.59-5.89,1-8.83,1.56a81.15,81.15,0,0,1-18.64,1.65A17.26,17.26,0,0,0,122,607.57c0,.06,0,.15,0,.2a17,17,0,0,0-.28,3.19v37.36a12.27,12.27,0,0,0,.14,2.11A17.35,17.35,0,0,0,138.86,666H205a26.26,26.26,0,0,1,23.28,14.32l5,9.56H347.74L354,677.9A22.18,22.18,0,0,1,373.62,666h68.49a17.66,17.66,0,0,0,17.18-17.64V611A16,16,0,0,0,459,608.09ZM450.32,648a5.63,5.63,0,0,1-.17,1.42,5.92,5.92,0,0,1-5.73,4.63H378a37.79,37.79,0,0,0-33.46,20.43l-1.78,3.45H241.2l-1.78-3.45A37.78,37.78,0,0,0,206,654H139.54a6,6,0,0,1-5.85-4.95,7.91,7.91,0,0,1-.08-1.1V610.61a6.15,6.15,0,0,1,1.76-4.31,5.63,5.63,0,0,1,3.92-1.71A179.84,179.84,0,0,0,166.12,602c6-1,12-2.35,17.69-3.83A288.69,288.69,0,0,0,225.47,584c5.82-2.46,10.71-4.75,14.46-6.55,3.26-1.59,5.62-2.84,6.95-3.53l8.89-.58L292,571l36.18,2.35,8.89.58c1.3.69,3.69,1.94,7,3.53,3.72,1.83,8.63,4.12,14.43,6.58a295.11,295.11,0,0,0,40.72,13.88c5.82,1.54,11.84,2.87,18,3.94a180.45,180.45,0,0,0,27.48,2.76,5.64,5.64,0,0,1,4.26,2,6.29,6.29,0,0,1,1.42,4Z"/><path class="cls-7" d="M348.79,605.07a57.38,57.38,0,0,1-104.55,32.59,57.32,57.32,0,0,0,76-82.19A57.32,57.32,0,0,1,348.79,605.07Z"/><path class="cls-8" d="M330.41,588.12a57.35,57.35,0,0,1-86.17,49.54A56.69,56.69,0,0,1,234,605.07a57.4,57.4,0,0,1,86.17-49.6A56.92,56.92,0,0,1,330.41,588.12Z"/><path class="cls-1" d="M278.3,462.82q2,1.23,4.07,2.37c-.74.43-1.5.85-2.27,1.25a82.23,82.23,0,0,1-12.44,5.42,92.73,92.73,0,0,1-19.05-9c-22-13.47-40.43-31.09-57.11-50.55a445.18,445.18,0,0,1-74.78-121.76C106.17,264.7,98.4,238.34,98.6,209.79c.19-30.33,7.57-58.55,21.12-85.32,19.64-38.89,48-69.65,86.91-90a177.67,177.67,0,0,1,61-19.24c5,.63,9.93,1.45,14.82,2.49a179.18,179.18,0,0,0-46.17,16.75c-38.87,20.39-67.26,51.15-86.91,90-13.54,26.77-20.92,55-21.12,85.32-.2,28.55,7.58,54.91,18.12,80.72a445.21,445.21,0,0,0,74.79,121.76C237.87,431.73,256.27,449.35,278.3,462.82Z"/><path class="cls-4" d="M427.57,120.08c-11-21.77-26.74-40.16-44.72-56.6-30.68-28-68.71-44.56-108.09-47.84-2.37.17-4.72.42-7.1.73,5,.62,9.9,1.47,14.79,2.49-5,1-9.92,2.34-14.81,3.84a181.89,181.89,0,0,0-31.33,12.91c-38.87,20.39-67.26,51.15-86.91,90-13.54,26.77-20.92,55-21.12,85.32-.2,28.55,7.58,54.9,18.12,80.72a445.21,445.21,0,0,0,74.79,121.76c13.93,16.26,29.06,31.23,46.5,43.58h0c3.42,2.45,7,4.77,10.58,7,1.32.82,2.68,1.58,4,2.35-.73.42-1.44.87-2.21,1.27A82.23,82.23,0,0,1,267.66,473a71.86,71.86,0,0,0,7.19,2,78.6,78.6,0,0,0,19.39-7.42c26.27-14,47.44-34.06,66-56.63,32.91-40,60.3-83.23,77.49-132.66,7.72-22.23,13.86-44.31,13.18-67.61C451.8,178,441.91,148.38,427.57,120.08Z"/><path class="cls-9" d="M480.58,209.54c.68,23.3-5.45,45.38-13.17,67.61-17.19,49.43-44.59,92.7-77.5,132.66-18.54,22.57-39.72,42.65-66,56.63-16.77,8.95-33.05,11.1-49.08,7.43a79,79,0,0,0,19.39-7.43c26.27-14,47.44-34.06,66-56.63,32.91-40,60.3-83.23,77.49-132.66,7.72-22.23,13.86-44.31,13.18-67.61.9-32.68-9-62.34-23.33-90.64-11-21.77-26.74-40.16-44.72-56.6-30.68-28-68.71-44.56-108.09-47.84,49.62-4.24,99.46,12.77,137.77,47.84,18,16.44,33.73,34.83,44.73,56.6C471.59,147.2,481.49,176.86,480.58,209.54Z"/><path class="cls-10" d="M458.14,315.14a19.76,19.76,0,0,1-17.79,11.21,18.88,18.88,0,0,1-6.08-1,19.71,19.71,0,0,1-8.93-5.93,18,18,0,0,0,1.7-2.88c17.67-36.66,53.37-132.88-6.14-218.91A196.33,196.33,0,0,0,264.64,13.33,197.17,197.17,0,0,1,452,96.22C511.51,182.25,475.81,278.48,458.14,315.14Z"/><path class="cls-1" d="M453.7,215.25C451.89,259.77,436.76,297.87,427,318a18,18,0,0,1-1.7,2.88,19.64,19.64,0,0,1-2.4-22.14c19.87-36.83,18.6-83.49,18.6-83.49H137.67s0,.48,0,1.42c0,8.1.79,49,18.63,82.07a19.67,19.67,0,0,1-6.78,25.93,19.17,19.17,0,0,1-4.39-3.81,18.29,18.29,0,0,1-2.82-4.27c-17.64-36.66-53.35-132.88,6.16-218.91a196.13,196.13,0,0,1,130.73-82A196.13,196.13,0,0,1,420.9,99.09C447.73,137.87,455.2,178.71,453.7,215.25Z"/><path class="cls-10" d="M293.46,11.28a196.13,196.13,0,0,0-130.73,82c-59.52,86-23.81,182.25-6.17,218.91a18.43,18.43,0,0,0,2.83,4.27,18.68,18.68,0,0,0,4.38,3.81,19,19,0,0,1-4.55,2.15,19.61,19.61,0,0,1-21-6,17.82,17.82,0,0,1-2.83-4.27C117.72,275.49,82,179.27,141.52,93.24A196.17,196.17,0,0,1,278.93,10.35C283.79,10.49,288.65,10.8,293.46,11.28Z"/><path d="M461.77,89.5a207.51,207.51,0,0,0-77.28-67.13c-2-1-3.95-2-6-2.92a213,213,0,0,0-177.84,0c-2,.95-4,1.91-6,2.92a207.35,207.35,0,0,0-77.26,67.15c-62.92,90.94-25.86,191.84-7,231a29.79,29.79,0,0,0,11.87,12.84,30.41,30.41,0,0,0,15.27,4.27,29.93,29.93,0,0,0,9.42-1.45c.82-.27,1.65-.57,2.43-.91a30.16,30.16,0,0,0,14.88-42.12c-13.11-24.3-16.44-53.78-17.27-68.92H432.14c-.8,15.14-4.13,44.62-17.24,68.94a30.1,30.1,0,0,0,15,42.12,22.59,22.59,0,0,0,2.32.89,30.48,30.48,0,0,0,9.3,1.47h.26a30,30,0,0,0,15.43-4.43c.14-.06.25-.16.39-.22a30.29,30.29,0,0,0,11.18-12.48C487.63,281.36,524.67,180.46,461.77,89.5ZM438.6,315.67a7,7,0,0,1-1.16-.27,9.39,9.39,0,0,1-5.9-5.51,9.22,9.22,0,0,1,.43-8c20.94-38.79,19.87-86.62,19.82-88.64l-.27-10H127.7l-.27,10c-.07,2-1.12,49.85,19.8,88.61a9.2,9.2,0,0,1,1.14,4.44,9.47,9.47,0,0,1-6.59,9,6.32,6.32,0,0,1-1,.25,9.51,9.51,0,0,1-10.44-5.17c-17.16-35.62-51-127.27,5.33-208.67a185.24,185.24,0,0,1,59.79-55c3.35-2,6.77-3.78,10.26-5.49,1.43-.75,2.87-1.43,4.33-2.11,2-.92,3.92-1.78,5.92-2.62l1.16-.48c1-.41,1.94-.82,2.92-1.18a183.06,183.06,0,0,1,17.91-6.06c1.51-.41,3-.82,4.51-1.21s3-.75,4.54-1.09c1.21-.29,2.41-.54,3.64-.79.53-.14,1.07-.23,1.62-.35.94-.18,1.87-.36,2.83-.52,1.27-.25,2.57-.48,3.87-.68,1.09-.18,2.19-.34,3.28-.5l2.44-.34c.64-.1,1.25-.16,1.89-.23,1-.12,1.92-.23,2.87-.32,1.35-.16,2.71-.3,4.08-.39,1.6-.13,3.21-.25,4.83-.34a1.72,1.72,0,0,1,.34,0c1-.05,2.05-.12,3.08-.14,2.62-.11,5.26-.16,7.88-.14,1.78,0,3.56,0,5.34.07,1.41,0,2.8.07,4.19.14.2,0,.41,0,.61,0,1.12.07,2.24.14,3.33.23,2.14.14,4.26.32,6.38.55,2.94.29,5.88.66,8.8,1.11,1.48.23,2.94.46,4.42.73l.48.07c1.41.23,2.82.5,4.23.79a.56.56,0,0,0,.23,0q6.81,1.4,13.51,3.28,4.51,1.26,9,2.78c1.48.47,3,1,4.42,1.54,1,.32,1.91.69,2.85,1.07.75.28,1.53.55,2.26.87,1.2.48,2.41,1,3.6,1.48,2,.82,4,1.7,5.94,2.62,1.44.68,2.87,1.36,4.31,2.09,3.49,1.71,6.9,3.55,10.25,5.49a185.32,185.32,0,0,1,59.79,55c23.32,33.69,31.2,69.16,31.2,101.66,0,46-15.79,86.14-25.84,107A9.63,9.63,0,0,1,438.6,315.67Z"/><path class="cls-1" d="M372.64,24.7v91.92a27,27,0,0,1-27,27H235.29a25.85,25.85,0,0,1-21.63-12.21,25.38,25.38,0,0,0,3.7.27H327.68a27,27,0,0,0,27-27V16.85A191.23,191.23,0,0,1,372.64,24.7Z"/><path class="cls-1" d="M223.24,34.69v85.52a25.65,25.65,0,0,0,2.69,11.47h-11.5a33,33,0,0,1-4-.25A25.94,25.94,0,0,1,205.32,116V30.46A224.51,224.51,0,0,1,354.26,20.32a225.13,225.13,0,0,0-131,14.37Z"/><path class="cls-10" d="M354.71,23v81.65a27,27,0,0,1-27,27H225.77a26.94,26.94,0,0,1-2.53-11.47V34.69A199.39,199.39,0,0,1,346.29,20.32C349.13,21.14,351.93,22.07,354.71,23Z"/><path class="cls-1" d="M208.3,24.7v91.92a27,27,0,0,0,27,27H345.66a25.83,25.83,0,0,0,21.62-12.21,25.28,25.28,0,0,1-3.7.27H253.26a27,27,0,0,1-27-27V16.85A192.39,192.39,0,0,0,208.3,24.7Z"/><path d="M378.67,20.52a211.18,211.18,0,0,0-176.4,0l-5.92,2.76v92.05a37.26,37.26,0,0,0,37.28,37.24H347.31a37.26,37.26,0,0,0,37.28-37.24v-92ZM346.9,131.68H234a16.81,16.81,0,0,1-16.77-16.75V36.07l1.15-.47c1-.42,2-.81,2.94-1.2,5.58-2.22,14.9-5.29,20.7-6.84l1.55-.41c1.49-.39,3-.75,4.51-1.09,1.2-.3,2.4-.55,3.62-.8.52-.14,1.07-.23,1.61-.34.93-.18,1.86-.36,2.81-.52,1.27-.25,2.56-.48,3.85-.69,1.08-.18,2.17-.34,3.26-.5l2.42-.34c.64-.09,1.25-.16,1.88-.23.95-.13,1.9-.22,2.86-.31,1.33-.16,2.69-.3,4.05-.39,1.59-.14,3.19-.25,4.8-.34a1.16,1.16,0,0,1,.34,0c1,0,2-.11,3.06-.13,2.6-.12,5.23-.16,7.84-.14,1.76,0,3.53,0,5.3.07,1.4,0,2.78.07,4.16.14.21,0,.41,0,.62,0,1.11.07,2.22.13,3.3.23q3.19.19,6.34.54c2.93.3,5.85.66,8.75,1.12,1.47.23,2.92.45,4.39.73l.48.06c1.4.25,2.81.53,4.21.8a.78.78,0,0,0,.23,0c4.5.93,9,2,13.43,3.27,3,.85,5.95,1.78,8.9,2.78,1.47.48,2.94,1,4.39,1.55,1,.32,1.91.68,2.83,1.07,1.9.69,3.79,1.53,5.68,2.14l.14.2v78.86A16.81,16.81,0,0,1,346.9,131.68Z"/><ellipse cx="223.24" cy="309.28" rx="28.32" ry="62.58" transform="translate(-156.66 275.21) rotate(-49.05)"/><ellipse class="cls-1" cx="197.85" cy="282.41" rx="10.46" ry="10.45"/><ellipse cx="357.7" cy="309.28" rx="62.58" ry="28.32" transform="translate(-115.16 310.09) rotate(-40.95)"/><ellipse class="cls-1" cx="383.1" cy="282.41" rx="10.46" ry="10.45"/><path d="M341.59,389.16a2.6,2.6,0,0,0-3.15-.41l-.75.43c-12.49,7.22-23.27,13.46-36.49,16.29-18.31,4.19-37.84-1.1-61.46-16.64a2.6,2.6,0,0,0-3.72,3.41,61,61,0,0,0,38.84,30.08,59.4,59.4,0,0,0,14.4,1.79,55.87,55.87,0,0,0,31.05-9.37A67.2,67.2,0,0,0,342,392.31,2.6,2.6,0,0,0,341.59,389.16Z"/><polygon points="534.48 551.04 523.93 554.8 488.14 567.59 472.11 573.32 466.4 557.39 477.9 553.27 515.05 540 528.77 535.08 534.48 551.04"/><path class="cls-10" d="M515.06,540l-37.15,13.27a2.19,2.19,0,0,0-.2-.25l24.62-8.79c-48.6-79-89.79-114.16-105-125.51.45-.57.93-1.1,1.38-1.67,1.84-2.23,3.65-4.49,5.43-6.72C408.47,413.1,456.36,444.65,515.06,540Z"/><path class="cls-10" d="M396.54,511.32v78.46c-4.12-1.18-8.13-2.45-12-3.78V515.56a69.17,69.17,0,0,0-9.12-4,11.51,11.51,0,0,1-5.8-4.1A12,12,0,0,1,368,497.15a11.41,11.41,0,0,1,3.51-5.39,8.76,8.76,0,0,1,5.68-1.9h4.2a12,12,0,0,0,.19,13.38,11.54,11.54,0,0,0,5.8,4.09A69.17,69.17,0,0,1,396.54,511.32Z"/><path class="cls-1" d="M502.79,545.61l-24.7,8.78c-14.43-19.09-37-44.56-63.84-59.76l-.23-.11a106.42,106.42,0,0,0-20-8.87,11.18,11.18,0,0,0-4.93-.52,11.42,11.42,0,0,0-7.89,4.73h-5a8.56,8.56,0,0,0-4.52,1.15,11.38,11.38,0,0,0-2.05,17.67,11.21,11.21,0,0,0,4.74,2.75,75.56,75.56,0,0,1,10.17,4.13V586a314.38,314.38,0,0,1-33.14-12.88,68.94,68.94,0,0,0-120.38,0A314,314,0,0,1,194,587.27c-3.09,1-6.3,1.86-9.56,2.74V511.32a76.59,76.59,0,0,1,9.85-4,12.16,12.16,0,0,0,5.52-3.41,11.31,11.31,0,0,0-11.91-18.27c-3.26,1.05-6.49,2.29-9.7,3.67-3.51,1.56-7,3.28-10.37,5.2-.34.2-.71.4-1,.62-26.54,15.25-48.88,40.53-63.2,59.43l-7.37-2.63L66.32,541.26c43.32-70.21,80.77-105.8,99.23-120.77,4.59-3.7,8-6.15,10-7.54,2.24,2.74,4.51,5.45,6.84,8.14,4.39,5.08,8.7,9.88,13,14.34a254.45,254.45,0,0,0,22.4,20.93c2.52,2.09,5,4.1,7.59,6.05,4.82,3.64,9.7,7,14.69,10.11.74.48,1.5.93,2.27,1.41a105.77,105.77,0,0,0,18.09,8.9c1.36.53,2.75,1,4.11,1.44a77.52,77.52,0,0,0,43.63,1.78c2.07-.51,4.14-1.11,6.21-1.78a92.66,92.66,0,0,0,10.83-4.38c1.33-.65,2.64-1.3,4-2,3.37-1.78,6.72-3.7,10-5.73,5-3,9.86-6.38,14.71-10,2.5-1.83,5-3.75,7.4-5.79a238.34,238.34,0,0,0,22.45-20.93q6.9-7.2,13.7-15.33C412.74,431.45,454.05,466.64,502.79,545.61Z"/><path d="M467.45,113.81c-10.58-20.9-26-40.48-47.22-59.88a199.52,199.52,0,0,0-36.47-26.58,188.87,188.87,0,0,0-182.44-3c-2,1-3.93,2.12-5.85,3.22a0,0,0,0,0,0,0c-36.76,20.76-65.59,51.57-85.87,91.73-14.84,29.29-22.16,58.86-22.39,90.41-.14,26.24,5.71,52.47,19,85.07a351.37,351.37,0,0,0,17.39,36.84h1v.69c10.07,21.3,22.93,41.77,37.44,61.35,4.43,6,9.07,11.89,13.82,17.7.06.06.09.12.14.17,2.24,2.74,4.5,5.46,6.82,8.14l0,.05c4.36,5.06,8.65,9.86,13,14.3A256.79,256.79,0,0,0,218.2,455q3.77,3.13,7.57,6c4.81,3.64,9.67,7,14.65,10.11.73.48,1.5.93,2.26,1.41a104.63,104.63,0,0,0,18,8.9c1.36.53,2.74,1,4.1,1.44a77.54,77.54,0,0,0,49.7,0,92.26,92.26,0,0,0,10.8-4.38c1.33-.65,2.63-1.3,4-2,3.36-1.78,6.7-3.7,10-5.74,5-3,9.84-6.38,14.67-10,2.49-1.83,4.95-3.75,7.38-5.79a239,239,0,0,0,22.39-20.92q7.59-7.94,15-17c1.84-2.23,3.65-4.49,5.43-6.72,4.81-6,9.39-12,13.8-18a490.77,490.77,0,0,0,28.53-43.16c3.3-5.67,6.41-11.35,9.8-17v2.44h-.36c8.82-19.44,16.2-36.47,22.22-53.76,7.61-21.86,14.53-45.61,13.83-71.34C492.78,178.88,485,148.43,467.45,113.81ZM456,271.92a350.18,350.18,0,0,1-17.62,42.19v1.68c-1.52,3.08-3.14,6.19-4.8,9.26s-3.28,6.05-5,9a489.27,489.27,0,0,1-47.67,68.38,253.85,253.85,0,0,1-30.25,31.43A174,174,0,0,1,321,454.83c-.88.51-1.73,1-2.63,1.44a66.31,66.31,0,0,1-18.55,6.81,53.88,53.88,0,0,1-21.17-.08h.2s-13.88-3.95-21.06-8c-1.05-.56-2.09-1.18-3.17-1.83a190.09,190.09,0,0,1-25.84-19.09,276.29,276.29,0,0,1-28.58-29.18c-19-22.17-35.6-45.78-48.63-70.64v0a45.16,45.16,0,0,1-6-9c-1.64-3.08-3.23-6.19-3-9.29v0c-6.7-9.72-11.2-19.57-15.3-29.6-12.1-29.71-17.44-53.27-17.3-76.37.23-27.93,6.73-54.2,19.93-80.3l.85-1.64c16-31.06,37.69-55.78,64.69-73.65a0,0,0,0,1,0,0c3.3-2.2,6.72-4.32,10.23-6.33a0,0,0,0,0,0,0c.68-.36,1.33-.73,2-1.13,1.38-.76,2.79-1.52,4.21-2.28s2.66-1.39,4-2c2.24-1.1,4.47-2.15,6.73-3.13,1.13-.51,2.29-1,3.42-1.47,4.13-1.73,12.53-4.71,12.53-4.71h4.47a158.66,158.66,0,0,1,99.61-.08c4.77,1.57,9.5,3.34,14.13,5.36,1.19.5,2.38,1,3.57,1.6,0,0,.05,0,.08,0,1.44.67,2.84,1.34,4.25,2h0q5.06,2.53,10,5.42s0,0,0,0c3.43,2,6.74,4.07,10,6.29A173.22,173.22,0,0,1,405.4,70.4c18.7,17.41,32.2,34.75,41.28,53,15.44,31.1,22.29,58,21.57,84.69v.64C468.89,230.77,462.76,252.1,456,271.92Z"/><path class="cls-10" d="M79.32,544.23,104,553a1.46,1.46,0,0,0-.2.25L66.6,540c54.48-88.52,99.66-122,109.3-128.6.06.06.09.12.14.17,2.24,2.74,4.5,5.46,6.82,8.14l0,.05C166.74,432.14,126.51,467.55,79.32,544.23Z"/><path class="cls-10" d="M184.4,511.32v78.46c4.12-1.18,8.13-2.45,11.95-3.78V515.56a69.75,69.75,0,0,1,9.12-4,11.51,11.51,0,0,0,5.8-4.1,11.92,11.92,0,0,0,1.63-10.32,11.47,11.47,0,0,0-3.5-5.39,8.78,8.78,0,0,0-5.68-1.9h-4.21a12.38,12.38,0,0,1,1.44,3.05,12,12,0,0,1-1.63,10.33,11.5,11.5,0,0,1-5.8,4.09A69.17,69.17,0,0,0,184.4,511.32Z"/><path class="cls-4" d="M540,584.45v8.22c-11.53-3.45-28-7.26-44.25-6.89l.12-5.09L494.16,578c-.4-.68-2.69-4.52-6.59-10.37l35.8-12.79Q531.55,568.78,540,584.45Z"/><path class="cls-4" d="M86.81,577.87l-1.72,2.8.11,5.11c-16.26-.31-32.68,3.44-44.22,6.89v-8.22q8.45-15.76,16.65-29.77l35.83,12.8C89.53,573.35,87.21,577.22,86.81,577.87Z"/><polygon points="116.05 557.39 110.33 573.32 93.99 567.48 58.17 554.68 47.97 551.04 53.68 535.08 67.08 539.88 104.2 553.16 116.05 557.39"/><path class="cls-2" d="M357.61,586.85a56.36,56.36,0,0,0-2.44-7.23,64,64,0,0,0-3.76-7.88,68.66,68.66,0,0,0-120,0,64.33,64.33,0,0,0-3.76,7.85,62.65,62.65,0,0,0-2.4,7.2,66.91,66.91,0,0,0-2.49,18.25,68.69,68.69,0,0,0,137.37,0A66.85,66.85,0,0,0,357.61,586.85Zm-66.19,64.23a46,46,0,0,1-36.05-74.65,42.4,42.4,0,0,1,5.8-6,44.63,44.63,0,0,1,9.16-6.27,46,46,0,0,1,42.15,0,44.63,44.63,0,0,1,9.16,6.27,40.81,40.81,0,0,1,5.8,6,46,46,0,0,1-36,74.65Z"/><path d="M229.07,586.38c-6.74-.28-13.67-.75-21-1.38,2.35-72.12-17.12-109.77-34-128.68a79.37,79.37,0,0,0-24.76-19c-1.41-.66-2.67-1.22-3.7-1.6-.6-.22-1.13-.44-1.6-.59l4.29-20.67A83.91,83.91,0,0,1,171.45,426a6,6,0,0,0,.63.44l.4.28c2.45,1.76,4.64,3.48,6.81,5.33,1.28,1.09,2.57,2.28,3.88,3.51a118.85,118.85,0,0,1,17.21,20.51,120.3,120.3,0,0,1,7.68,13.12l.1.75.56.47a174.48,174.48,0,0,1,13,35.67C227.66,529.41,230.13,556.41,229.07,586.38Z"/><path d="M356.4,586.38c6.74-.28,13.67-.75,21-1.38-2.35-72.12,17.12-109.77,34-128.68a79.14,79.14,0,0,1,24.76-19c1.41-.66,2.67-1.22,3.7-1.6.6-.22,1.13-.44,1.6-.59l-4.29-20.67A83.91,83.91,0,0,0,414,426a6,6,0,0,1-.63.44l-.4.28c-2.45,1.76-4.64,3.48-6.81,5.33-1.28,1.09-2.57,2.28-3.88,3.51a119.35,119.35,0,0,0-17.22,20.51,123.63,123.63,0,0,0-7.68,13.12l-.09.75-.56.47a174.49,174.49,0,0,0-13.05,35.67C357.81,529.41,355.33,556.41,356.4,586.38Z"/><path d="M286.61,530a158.15,158.15,0,0,1-37.27-4.37c-32.66-7.92-51.36-23.83-52.14-24.5l16.85-15.16-8.42,7.58,8.39-7.61c2.5,2.12,62.52,51.45,158-1.38l12.82,18C346.94,523.44,313.53,530,286.61,530Z"/><text class="cls-11" transform="translate(553.63 294.32)">M<tspan class="cls-12" x="143.47" y="0">e</tspan><tspan x="249.37" y="0">r</tspan><tspan class="cls-13" x="330.69" y="0">c</tspan><tspan x="436.6" y="0">a</tspan><tspan class="cls-14" x="543.89" y="0">d</tspan><tspan x="643.45" y="0">o</tspan></text><text class="cls-15" transform="translate(674.57 436.01)">Exp<tspan class="cls-16" x="270.45" y="0">r</tspan><tspan class="cls-17" x="338.76" y="0">e</tspan><tspan class="cls-18" x="425.68" y="0">s</tspan><tspan class="cls-19" x="513.11" y="0">s</tspan><tspan x="597.99" y="0">o</tspan></text></g></g></svg>