<svg xmlns="http://www.w3.org/2000/svg" viewBox="0 0 1067.72 541.01"><defs><style>.cls-1,.cls-11,.cls-15,.cls-20{fill:#fff;}.cls-2{fill:#221e20;}.cls-3{fill:#5a4b43;}.cls-4{fill:#44ac45;}.cls-5{fill:#333;}.cls-6{fill:#5c5b5c;}.cls-7{fill:#e1a208;}.cls-8{fill:#f3bb08;}.cls-9{fill:#019639;}.cls-10{fill:#b9aebe;}.cls-11{font-size:121.25px;}.cls-11,.cls-15,.cls-20{font-family:Orbitron-Black, Orbitron;font-weight:800;}.cls-12{letter-spacing:-0.01em;}.cls-13{letter-spacing:-0.01em;}.cls-14{letter-spacing:-0.02em;}.cls-15{font-size:99.95px;}.cls-16{letter-spacing:0.01em;}.cls-17{letter-spacing:-0.01em;}.cls-18{letter-spacing:0em;}.cls-19{letter-spacing:-0.02em;}.cls-20{font-size:33.41px;}.cls-21{letter-spacing:-0.03em;}.cls-22{letter-spacing:0.03em;}.cls-23{letter-spacing:0.01em;}.cls-24{letter-spacing:-0.03em;}.cls-25{letter-spacing:-0.01em;}.cls-26{letter-spacing:0.01em;}.cls-27{letter-spacing:-0.03em;}.cls-28{letter-spacing:0.02em;}.cls-29{letter-spacing:-0.03em;}</style></defs><g id="Camada_2" data-name="Camada 2"><g id="Camada_1-2" data-name="Camada 1"><rect x="62.6" y="313.94" width="325.71" height="21.07"/><path class="cls-1" d="M378.94,301.75v12.19H74.32V301.75a6.53,6.53,0,0,1,6.54-6.53H372.4A6.53,6.53,0,0,1,378.94,301.75Z"/><path d="M395.34,293.06V477.88q-6.4,7.31-13.22,14h-3.18a12.87,12.87,0,0,0,0-1.41v-191a6.53,6.53,0,0,0-6.54-6.53H80.86a6.53,6.53,0,0,0-6.54,6.53V491.85h-3.2c-4.51-4.45-8.93-9.14-13.2-14V293.09a21.29,21.29,0,0,1,21.3-21.28H374.07A21.26,21.26,0,0,1,395.34,293.06Z"/><rect class="cls-1" x="74.32" y="344.38" width="304.62" height="124.06"/><rect class="cls-2" x="57.92" y="468.44" width="337.43" height="23.41"/><path class="cls-3" d="M118.08,504.38,8.17,513.9a2.62,2.62,0,0,1-2.84-2.39L3.74,493.23a2.64,2.64,0,0,1,2.39-2.84L116,480.87Z"/><path class="cls-2" d="M15.67,517.64A15.57,15.57,0,0,1,.18,503.43l-.12-1.35a15.56,15.56,0,0,1,14.16-16.83l105.85-9.17,2.81,32.33L17,517.58C16.57,517.62,16.12,517.64,15.67,517.64Zm96.33-32-97,8.4a6.7,6.7,0,0,0-6.1,7.24L9,502.66a6.73,6.73,0,0,0,7.25,6.09l97-8.4Z"/><path class="cls-3" d="M336.17,504.38l109.9,9.52a2.63,2.63,0,0,0,2.85-2.39l1.58-18.28a2.62,2.62,0,0,0-2.39-2.84l-109.9-9.52Z"/><path class="cls-2" d="M437.22,517.58l-105.85-9.17,2.8-32.33L440,485.25a15.55,15.55,0,0,1,14.16,16.83l-.11,1.35a15.58,15.58,0,0,1-15.5,14.21Q437.9,517.64,437.22,517.58ZM341,500.35l97,8.4a6.73,6.73,0,0,0,7.25-6.09l.12-1.35a6.7,6.7,0,0,0-6.09-7.24l-97-8.4Z"/><path class="cls-2" d="M325.05,469.36V392.47a4.5,4.5,0,0,0-2.36-4.08,4.73,4.73,0,0,0-7,4.11v76.82a4.73,4.73,0,0,0,7,4.12A4.5,4.5,0,0,0,325.05,469.36Z"/><path class="cls-2" d="M325,384.33l-.19-.1a9.67,9.67,0,0,0-8.69-.14,9,9,0,0,0-5.08,8.25v77A9.36,9.36,0,0,0,329.33,472a9,9,0,0,0,.4-2.67V392.5A9.38,9.38,0,0,0,325,384.33Z"/><path d="M448.34,488.54c-.58-5.87-2.46-11.54-6.13-15.68V453.92L440.6,452C386.55,350.24,338.54,314.76,327.79,307.71c-1.22-.82-2-1.24-2.17-1.37a8.75,8.75,0,0,0-7.48-.62,8.87,8.87,0,0,0-4.63,3.85,8.52,8.52,0,0,0-1.15,3.66,8.85,8.85,0,0,0,4.36,8.44,1.47,1.47,0,0,0,.25.13c3.37,2.17,40.93,26.91,87,101.69q3.42,5.61,7,11.61c4.28,7.31,8.63,15.06,12.57,23.25v6.45c-8.6-2.7-21.48-5.69-34.25-5.41l.09-4L388,453.26c-.31-.53-2.11-3.54-5.17-8.13-2.11-3.12-4.81-7-8-11.23-11.28-15-29-35.11-50.08-47.07l-.18-.09a82.59,82.59,0,0,0-15.7-7,8.78,8.78,0,0,0-6.78.55,8.85,8.85,0,0,0,1.37,16.32,60.7,60.7,0,0,1,8.07,3.28c1.49.71,3,1.51,4.44,2.35s3,1.75,4.43,2.7,3,2,4.44,3.08,3,2.22,4.43,3.41c21.35,17.21,38,42.2,42.22,48.73l-.07,2.28a18.86,18.86,0,0,0-4.9,3.68,25.18,25.18,0,0,0-6,10.68c-.15.48-.29,1-.4,1.48a38.79,38.79,0,0,0-.84,4.39c-.2,1.39-.33,2.88-.42,4.4a76.33,76.33,0,0,0,.51,12.47c.07.76.16,1.55.29,2.4a38.28,38.28,0,0,0,1.08,4.54,8.71,8.71,0,0,0,.34,1,31.33,31.33,0,0,0,1.46,3.58c3.35,7,9.67,13.71,20.55,14.07a13.19,13.19,0,0,0,3.91-.27,24.2,24.2,0,0,0,11.75,3.44,17.76,17.76,0,0,0,3.7-.4,16.45,16.45,0,0,0,4.77-1.89,19.48,19.48,0,0,0,8.82,2.29,16.81,16.81,0,0,0,3.11-.34,14.76,14.76,0,0,0,4.34-1.61,18.08,18.08,0,0,0,11.89-.8,16.74,16.74,0,0,0,8.6-9,17.34,17.34,0,0,0,.93-2.52c.27-.8.67-2.11,1.13-3.79a72.19,72.19,0,0,0,2.46-14.86A48.79,48.79,0,0,0,448.34,488.54Zm-65.59,18.39-2.06-.56a7.83,7.83,0,0,1-2.1-2.76,17.7,17.7,0,0,1-1.6-5.74,67.89,67.89,0,0,1-.47-9.24,32.4,32.4,0,0,1,.45-4.41,15,15,0,0,1,1.28-4.34,5.62,5.62,0,0,1,.87-1.28,1.52,1.52,0,0,1,.31-.31l2.42-.44,2.12-.34a2.81,2.81,0,0,1-.26.38,9.54,9.54,0,0,0-1.18,2.37,8.72,8.72,0,0,0-.31,4.25c0,.07,0,.11,0,.18.29,1.59.51,3.1.71,4.5,1,7.35.89,12,.47,14.84A14.11,14.11,0,0,1,382.75,506.93Zm16.94-25.47a8.67,8.67,0,0,0-1.77-4c2.55.24,5.1.64,7.58,1.09a8.74,8.74,0,0,0-5.56,3.19,1.25,1.25,0,0,0-.16.17.79.79,0,0,0,0-.2A.87.87,0,0,0,399.69,481.46Zm17.19,1.77a9.19,9.19,0,0,0-1.49,1.9,8.09,8.09,0,0,0-.84-2.1,8.85,8.85,0,0,0-3-3.17c2.59.62,5,1.29,7.2,1.95A9.14,9.14,0,0,0,416.88,483.23Z"/><path class="cls-2" d="M130.56,469.36V392.47a4.49,4.49,0,0,1,2.35-4.08,4.73,4.73,0,0,1,7,4.11v76.82a4.73,4.73,0,0,1-7,4.12A4.49,4.49,0,0,1,130.56,469.36Z"/><path class="cls-2" d="M144.62,392.56a9.16,9.16,0,0,0-3.21-7.15,9.45,9.45,0,0,0-10.53-1.2c-.28.16-.58.33-.86.52a9.39,9.39,0,0,0-4.15,7.77v76.82a9.07,9.07,0,0,0,.42,2.77,9.35,9.35,0,0,0,17.41,1.21,9,9,0,0,0,.92-4Z"/><path d="M158.79,385.48a8.85,8.85,0,0,0-4.39-5.16,8.7,8.7,0,0,0-6.74-.55,83.77,83.77,0,0,0-15.7,7c-.26.16-.55.31-.82.49-20.75,12-38.22,31.78-49.42,46.6-3.22,4.25-5.9,8.11-8,11.23-3.08,4.61-4.9,7.64-5.21,8.15l-1.35,2.2.09,4c-12.75-.24-25.63,2.71-35.1,5.41v-6.45c4.83-8.24,9.18-16,13.48-23.34q3.52-6,7-11.61c42.32-68.77,77.47-95.18,85.45-100.62a20.34,20.34,0,0,1,1.71-1.11,8.94,8.94,0,0,0,3.17-12.1,8.89,8.89,0,0,0-7.32-4.38,8.59,8.59,0,0,0-4.77,1.15c-.31.18-1.59.93-3.74,2.41C113.85,317.9,67.64,354.56,15.89,452l-2.5,2v18.94A35.47,35.47,0,0,0,8.33,487a40.11,40.11,0,0,0-.4,5.69,69.65,69.65,0,0,0,3,19.49c.22.78.42,1.42.57,1.89a23.21,23.21,0,0,0,1.29,3.32,16.64,16.64,0,0,0,8.25,8.24,18.1,18.1,0,0,0,11.93.8,14,14,0,0,0,4.3,1.59,15.86,15.86,0,0,0,3.15.36,19.4,19.4,0,0,0,8.8-2.29A16.57,16.57,0,0,0,54.07,528a17.29,17.29,0,0,0,3.68.4,24.3,24.3,0,0,0,11.75-3.44,13,13,0,0,0,3.9.27c11-.38,17.36-7.18,20.69-14.27a34.45,34.45,0,0,0,1.75-4.6c.07-.2.11-.4.18-.6a32.48,32.48,0,0,0,.86-3.94c.09-.73.18-1.4.23-2a75.24,75.24,0,0,0,.48-12.83c-.08-1.52-.22-3-.42-4.38a36.67,36.67,0,0,0-.86-4.39.18.18,0,0,0,0-.15A25.48,25.48,0,0,0,90,466.15a19.48,19.48,0,0,0-4.92-3.68l0-2.28c4.19-6.53,20.87-31.52,42.2-48.73,1.46-1.17,2.92-2.32,4.43-3.41s2.93-2.1,4.44-3.06,2.92-1.88,4.43-2.72,2.95-1.62,4.43-2.35a60.53,60.53,0,0,1,8.1-3.28,8.86,8.86,0,0,0,5.74-11.16ZM37.68,481.81c2.18-.64,4.59-1.31,7.21-1.95a8.89,8.89,0,0,0-2.88,3,9.55,9.55,0,0,0-1,2.3,8.54,8.54,0,0,0-1.66-2.06A7.2,7.2,0,0,0,37.68,481.81ZM51,478.58c2.46-.45,5-.82,7.56-1.09a8.67,8.67,0,0,0-1.78,4s0,.06,0,.11,0,.26-.06.37a2.59,2.59,0,0,0-.31-.35A8.78,8.78,0,0,0,51,478.58Zm25,27.64-2.27.66a13.69,13.69,0,0,1-.68-3.05c-.4-2.88-.49-7.53.51-14.82.2-1.4.44-2.9.73-4.5v0a8.55,8.55,0,0,0-.38-4.41,8.37,8.37,0,0,0-1.11-2.19,3,3,0,0,0-.29-.35c.76.08,1.49.19,2.22.33l2.33.42a2.34,2.34,0,0,1,.33.31l0,0a4.42,4.42,0,0,1,.74,1.09,15.62,15.62,0,0,1,1.37,4.34,34.1,34.1,0,0,1,.42,4.4,61.84,61.84,0,0,1-.44,9.55A17.87,17.87,0,0,1,78,503.41,8.22,8.22,0,0,1,76,506.22Z"/><path class="cls-4" d="M372.32,498.48c0,.54,1.28,13.57,11.31,13.77v-.4l.44.14a2.61,2.61,0,0,0,1.45-1c1.44-1.71,4.41-7.79,1-27.14a4.45,4.45,0,1,1,8.74-1.71c2.61,14.79,2.27,25.22-1,31.65,1.78.89,3.78,1.56,5.34,1.22.42-.11,1.6-.35,2.78-2.4V487.39a4.46,4.46,0,0,1,2.41-4.08,4.74,4.74,0,0,1,7,4.15v25.62c1.64,1.16,3.68,2.12,4.94,1.87.89-.19,1.58-1.2,2.09-2.21V489.61a4.43,4.43,0,0,1,2.4-4.08,4.73,4.73,0,0,1,7,4.15V514a4.89,4.89,0,0,0,2.45-.2c1-.43,1.76-1.56,2.33-3.45,2.61-8,5.72-25.68-1.4-29.26-2.41-1-29.41-11.79-50.61-7.92l-.42.07-2.82.51a7,7,0,0,0-2.05,1.56C373.65,477.48,370.58,483.33,372.32,498.48Z"/><path class="cls-4" d="M83.29,498.48C83.24,499,82,512.05,72,512.25v-.4l-.45.14a2.61,2.61,0,0,1-1.45-1c-1.44-1.71-4.41-7.79-1-27.14a4.45,4.45,0,1,0-8.74-1.71c-2.61,14.79-2.27,25.22,1,31.65-1.79.89-3.79,1.56-5.35,1.22-.42-.11-1.6-.35-2.78-2.4V487.39a4.46,4.46,0,0,0-2.41-4.08,4.73,4.73,0,0,0-7,4.15v25.62c-1.65,1.16-3.69,2.12-5,1.87-.88-.19-1.58-1.2-2.08-2.21V489.61a4.43,4.43,0,0,0-2.41-4.08,4.73,4.73,0,0,0-7,4.15V514a4.91,4.91,0,0,1-2.45-.2c-1-.43-1.76-1.56-2.32-3.45-2.62-8-5.73-25.68,1.39-29.26,2.41-1,29.41-11.79,50.61-7.92l.43.07,2.81.51a6.88,6.88,0,0,1,2,1.56C82,477.48,85,483.33,83.29,498.48Z"/><path class="cls-5" d="M355.51,478.29v30.25a9.07,9.07,0,0,1-9.07,9.06H293a25.77,25.77,0,0,0-22.77,13.63l-2.73,5.09h-81l-2.79-5.24a26.46,26.46,0,0,0-7.61-8.8h89.43l2.5-5.09c4.1-8.41,12.12-13.64,20.85-13.64h48.19a9,9,0,0,0,9-9V469.28l.59,0A9.14,9.14,0,0,1,355.51,478.29Z"/><path class="cls-6" d="M346.13,473.54v20.95a9.06,9.06,0,0,1-9.06,9.06H283.62a25.81,25.81,0,0,0-22.78,13.64l-2.73,5.09H176a1.4,1.4,0,0,0-.22-.17A26.2,26.2,0,0,0,161,517.6H109.16a9.07,9.07,0,0,1-9.07-9.06V482.11a8.75,8.75,0,0,1,8.78-8.53c40.95-.67,82.81-22.07,82.81-22.07l36.43-2.17,36.41,2.17S305.56,472.49,346.13,473.54Z"/><path d="M360,476.89a7.43,7.43,0,0,0-.35-1.59,13.57,13.57,0,0,0-3.3-5.84,13.11,13.11,0,0,0-10.45-4.1,48.65,48.65,0,0,1-13.06-1.06c-2.92-.59-5.93-1-8.85-1.59-1.49-.29-3-.61-4.41-.95s-3-.68-4.46-1.07-3-.75-4.43-1.16a235.47,235.47,0,0,1-35.86-13.41c-5.27-2.48-8.4-4.18-8.51-4.25l-.84-.48-5.18-.34-16-1-16.51-1.07L211.29,440l-15.95,1-5.19.34-.86.48c-.11.07-3.24,1.77-8.53,4.27a233,233,0,0,1-36.46,13.57c-1.46.41-3,.8-4.43,1.16s-2.93.71-4.41,1-3,.66-4.45.94c-2.28.46-4.62.81-6.92,1.22a64.27,64.27,0,0,1-14.62,1.29,13.54,13.54,0,0,0-13.82,11.14s0,.12,0,.16a13.06,13.06,0,0,0-.22,2.5v29.3a10.14,10.14,0,0,0,.11,1.66,13.62,13.62,0,0,0,13.38,12.18h51.83A20.59,20.59,0,0,1,179,533.51l3.92,7.5h89.8l4.87-9.37A17.39,17.39,0,0,1,293,522.28h53.72a13.61,13.61,0,0,0,13.33-11.93,13.22,13.22,0,0,0,.13-1.91v-29.3A11.92,11.92,0,0,0,360,476.89Zm-6.83,31.28a4.56,4.56,0,0,1-.13,1.11,4.66,4.66,0,0,1-4.5,3.64H296.42a29.62,29.62,0,0,0-26.24,16l-1.4,2.7H189.16l-1.4-2.7a29.6,29.6,0,0,0-26.21-16H109.43a4.73,4.73,0,0,1-4.58-3.89,4.83,4.83,0,0,1-.07-.86v-29.3a4.89,4.89,0,0,1,1.38-3.39,4.53,4.53,0,0,1,3.07-1.34,140.15,140.15,0,0,0,21-2.06c4.74-.82,9.4-1.85,13.87-3A229.36,229.36,0,0,0,176.83,458c4.56-1.94,8.39-3.73,11.33-5.14,2.56-1.25,4.41-2.23,5.46-2.77l7-.46L229,447.78l28.38,1.84,7,.46c1,.54,2.89,1.52,5.48,2.77,2.91,1.43,6.77,3.23,11.31,5.16a230.67,230.67,0,0,0,31.94,10.88c4.56,1.21,9.28,2.25,14.09,3.09a140.38,140.38,0,0,0,21.56,2.16,4.45,4.45,0,0,1,3.34,1.62,4.9,4.9,0,0,1,1.11,3.11Z"/><path class="cls-7" d="M273.53,474.52a45,45,0,0,1-82,25.56,45,45,0,0,0,59.58-64.45A44.92,44.92,0,0,1,273.53,474.52Z"/><path class="cls-8" d="M259.12,461.23a45,45,0,0,1-67.58,38.85,44.53,44.53,0,0,1-8-25.56,45,45,0,0,1,67.58-38.89A44.66,44.66,0,0,1,259.12,461.23Z"/><path class="cls-1" d="M218.25,363c1.07.64,2.13,1.26,3.19,1.86-.57.33-1.17.66-1.77,1a64.06,64.06,0,0,1-9.76,4.25A72.78,72.78,0,0,1,195,363c-17.27-10.57-31.71-24.39-44.79-39.65a349,349,0,0,1-58.64-95.49c-8.27-20.24-14.37-40.91-14.22-63.3.16-23.79,6-45.92,16.57-66.92C109.3,67.11,131.56,43,162,27a139.29,139.29,0,0,1,47.87-15.08q5.86.72,11.62,1.95A140.33,140.33,0,0,0,185.33,27c-30.49,16-52.75,40.11-68.16,70.61-10.62,21-16.41,43.13-16.57,66.92-.15,22.39,6,43.06,14.22,63.3a349,349,0,0,0,58.64,95.49C186.54,338.58,201,352.4,218.25,363Z"/><path class="cls-4" d="M335.32,94.17c-8.62-17.07-21-31.49-35.07-44.38a143.29,143.29,0,0,0-84.77-37.52c-1.86.13-3.7.33-5.57.57,3.91.49,7.77,1.15,11.6,1.95-3.9.82-7.78,1.84-11.62,3a143.39,143.39,0,0,0-24.56,10.12c-30.49,16-52.75,40.12-68.16,70.62-10.62,21-16.41,43.12-16.57,66.91-.15,22.4,6,43.06,14.22,63.31a349,349,0,0,0,58.64,95.48c10.93,12.76,22.8,24.5,36.48,34.18h0c2.68,1.93,5.45,3.74,8.29,5.47,1,.64,2.11,1.24,3.15,1.84-.58.33-1.13.69-1.73,1a65.07,65.07,0,0,1-9.76,4.25,57.73,57.73,0,0,0,5.64,1.57,61.86,61.86,0,0,0,15.21-5.82c20.6-11,37.2-26.72,51.75-44.41,25.81-31.35,47.29-65.28,60.77-104,6.06-17.43,10.87-34.75,10.33-53C354.32,139.63,346.56,116.37,335.32,94.17Z"/><path class="cls-9" d="M376.9,164.33c.53,18.27-4.28,35.59-10.34,53-13.48,38.77-35,72.7-60.77,104-14.55,17.7-31.15,33.45-51.75,44.41-13.15,7-25.92,8.71-38.49,5.83a61.9,61.9,0,0,0,15.21-5.83c20.6-11,37.2-26.71,51.75-44.41,25.81-31.34,47.29-65.27,60.77-104,6.06-17.43,10.87-34.75,10.33-53,.71-25.63-7.05-48.89-18.29-71.08-8.62-17.08-21-31.5-35.07-44.39a143.41,143.41,0,0,0-84.77-37.52c38.91-3.32,78,10,108,37.52C337.63,61.75,350,76.17,358.6,93.25,369.85,115.44,377.61,138.7,376.9,164.33Z"/><path class="cls-10" d="M359.29,247.15a15.49,15.49,0,0,1-14,8.79,14.56,14.56,0,0,1-4.76-.78,15.42,15.42,0,0,1-7-4.65,14.57,14.57,0,0,0,1.33-2.26C348.76,219.5,376.76,144,330.09,76.57A154,154,0,0,0,207.54,10.45a151.7,151.7,0,0,1,19.58-1.17A154.09,154.09,0,0,1,354.48,75.46C401.15,142.93,373.15,218.4,359.29,247.15Z"/><path class="cls-1" d="M355.81,168.81c-1.42,34.91-13.28,64.79-20.91,80.58a14.57,14.57,0,0,1-1.33,2.26,15.41,15.41,0,0,1-1.88-17.36c15.58-28.89,14.59-65.48,14.59-65.48H108s0,.38,0,1.11c0,6.36.62,38.45,14.62,64.37a15.42,15.42,0,0,1-5.33,20.33,15,15,0,0,1-3.43-3,14.39,14.39,0,0,1-2.22-3.34C97.74,219.54,69.74,144.07,116.41,76.6A153.93,153.93,0,0,1,218.94,12.32,153.85,153.85,0,0,1,330.09,77.71C351.13,108.12,357,140.15,355.81,168.81Z"/><path class="cls-10" d="M230.14,8.84A153.83,153.83,0,0,0,127.62,73.12C80.94,140.59,109,216.05,122.78,244.81a14.39,14.39,0,0,0,2.22,3.34,14.84,14.84,0,0,0,3.44,3,15.18,15.18,0,0,1-3.57,1.68,15.4,15.4,0,0,1-16.5-4.67,14.39,14.39,0,0,1-2.22-3.34C92.32,216.05,64.32,140.59,111,73.12a153.82,153.82,0,0,1,107.76-65C222.56,8.22,226.37,8.47,230.14,8.84Z"/><path d="M362.14,70.19a162.76,162.76,0,0,0-60.6-52.65c-1.55-.79-3.1-1.54-4.69-2.28a167,167,0,0,0-139.47,0c-1.58.74-3.13,1.49-4.68,2.28A162.6,162.6,0,0,0,92.11,70.2c-49.35,71.32-20.28,150.45-5.49,181.15a23.37,23.37,0,0,0,9.31,10.07,23.88,23.88,0,0,0,12,3.35,23.35,23.35,0,0,0,7.38-1.13c.65-.22,1.3-.45,1.91-.72a23.64,23.64,0,0,0,14.5-21.85,23.89,23.89,0,0,0-2.83-11.19c-10.28-19-12.9-42.17-13.54-54H338.91c-.63,11.88-3.24,35-13.53,54.07a23.61,23.61,0,0,0,11.76,33,18.49,18.49,0,0,0,1.82.71,24.26,24.26,0,0,0,7.3,1.15h.19a23.61,23.61,0,0,0,12.11-3.48l.3-.18a23.6,23.6,0,0,0,8.77-9.78C382.42,220.65,411.47,141.52,362.14,70.19ZM344,247.57a6,6,0,0,1-.91-.22,7.44,7.44,0,0,1-4.29-10.57c16.42-30.42,15.58-67.92,15.55-69.51l-.22-7.82H100.15l-.22,7.82c-.05,1.59-.87,39.09,15.53,69.5a7.11,7.11,0,0,1,.9,3.48,7.42,7.42,0,0,1-5.17,7.08,4.68,4.68,0,0,1-.8.2,7.46,7.46,0,0,1-8.19-4.05c-13.45-27.94-40-99.81,4.19-163.65a145.13,145.13,0,0,1,46.89-43.11q3.93-2.31,8-4.31c1.12-.58,2.25-1.12,3.39-1.66,1.54-.71,3.08-1.39,4.65-2.05l.91-.37c.75-.32,1.52-.65,2.29-.93a144.83,144.83,0,0,1,14-4.75l3.54-.95c1.18-.3,2.38-.59,3.56-.85,1-.24,1.89-.43,2.86-.63.41-.11.84-.18,1.27-.27l2.21-.41c1-.19,2-.37,3-.53l2.57-.39,1.92-.27c.5-.07,1-.13,1.48-.18.75-.09,1.5-.18,2.25-.25,1.06-.13,2.13-.23,3.2-.3,1.25-.11,2.52-.2,3.79-.27a1.06,1.06,0,0,1,.27,0c.8,0,1.61-.09,2.41-.11,2.05-.09,4.13-.12,6.18-.1,1.4,0,2.79,0,4.18.05,1.11,0,2.2,0,3.29.11h.48c.88.06,1.76.11,2.61.18,1.68.11,3.35.25,5,.43,2.3.23,4.61.52,6.9.88,1.16.17,2.3.35,3.46.57l.38,0c1.11.18,2.21.39,3.32.63a.84.84,0,0,0,.18,0q5.34,1.1,10.6,2.57,3.54,1,7,2.18c1.16.37,2.32.79,3.47,1.21.75.25,1.5.54,2.23.84s1.2.43,1.77.68c.95.38,1.89.77,2.82,1.16,1.58.64,3.13,1.34,4.67,2.05,1.12.54,2.25,1.08,3.37,1.65q4.11,2,8,4.3a145.42,145.42,0,0,1,46.89,43.13c18.28,26.42,24.46,54.23,24.46,79.73,0,36.07-12.38,67.55-20.26,83.92A7.57,7.57,0,0,1,344,247.57Z"/><path class="cls-1" d="M292.24,19.37V91.46A21.19,21.19,0,0,1,271,112.63H184.52a20.24,20.24,0,0,1-17-9.57,19.86,19.86,0,0,0,2.89.21H257a21.19,21.19,0,0,0,21.2-21.18V13.22A149.6,149.6,0,0,1,292.24,19.37Z"/><path class="cls-1" d="M175.08,27.21V94.28a20.09,20.09,0,0,0,2.11,9h-9a25.09,25.09,0,0,1-3.14-.2A20.35,20.35,0,0,1,161,91V23.88a176.15,176.15,0,0,1,116.81-7.95A176.61,176.61,0,0,0,175.08,27.21Z"/><path class="cls-10" d="M278.18,18.06v64A21.19,21.19,0,0,1,257,103.27H177.06a21.12,21.12,0,0,1-2-9V27.21a156.42,156.42,0,0,1,96.5-11.28C273.8,16.58,276,17.31,278.18,18.06Z"/><path class="cls-1" d="M163.36,19.37V91.46a21.19,21.19,0,0,0,21.2,21.17h86.52a20.27,20.27,0,0,0,17-9.57,20.1,20.1,0,0,1-2.9.21H198.62a21.19,21.19,0,0,1-21.2-21.18V13.22A149.6,149.6,0,0,0,163.36,19.37Z"/><path d="M297,16.1a165.58,165.58,0,0,0-138.34,0L154,18.26V90.45a29.22,29.22,0,0,0,29.23,29.2h89.16a29.22,29.22,0,0,0,29.23-29.2V18.26Zm-24.91,87.17H183.54a13.18,13.18,0,0,1-13.15-13.14V28.29l.91-.37c.77-.33,1.53-.64,2.3-.94,4.38-1.74,11.68-4.15,16.23-5.37l1.22-.32c1.17-.3,2.36-.59,3.53-.85.95-.24,1.89-.43,2.85-.63.41-.11.83-.18,1.26-.27l2.2-.41c1-.19,2-.37,3-.53.85-.15,1.7-.27,2.56-.4l1.9-.26c.5-.07,1-.13,1.47-.18.75-.11,1.49-.18,2.24-.25,1-.13,2.11-.23,3.18-.31,1.24-.1,2.5-.19,3.77-.26a1,1,0,0,1,.26,0c.8,0,1.6-.09,2.4-.11,2-.09,4.1-.12,6.15-.1,1.38,0,2.77,0,4.15.05,1.1,0,2.19,0,3.27.11h.48c.87.06,1.74.11,2.59.18,1.67.11,3.33.25,5,.43,2.29.23,4.58.52,6.85.88,1.16.17,2.3.35,3.45.57l.37,0,3.31.62a.44.44,0,0,0,.18,0c3.53.73,7,1.59,10.53,2.57q3.51,1,7,2.18c1.15.37,2.31.78,3.44,1.21.75.25,1.5.54,2.23.84,1.48.54,3,1.2,4.45,1.68l.11.16V90.13A13.18,13.18,0,0,1,272.06,103.27Z"/><ellipse cx="175.08" cy="242.55" rx="22.21" ry="49.08" transform="translate(-122.86 215.83) rotate(-49.05)"/><ellipse class="cls-1" cx="155.16" cy="221.48" rx="8.2" ry="8.19"/><ellipse cx="280.52" cy="242.55" rx="49.08" ry="22.21" transform="translate(-90.32 243.19) rotate(-40.95)"/><ellipse class="cls-1" cx="300.44" cy="221.48" rx="8.2" ry="8.19"/><path d="M267.89,305.2a2,2,0,0,0-2.47-.33l-.59.34c-9.79,5.66-18.25,10.56-28.62,12.78-14.35,3.28-29.67-.87-48.19-13.06a2,2,0,0,0-2.93,2.68,47.86,47.86,0,0,0,30.47,23.59,46.62,46.62,0,0,0,11.29,1.41,43.84,43.84,0,0,0,24.35-7.35,52.78,52.78,0,0,0,17-17.59A2,2,0,0,0,267.89,305.2Z"/><polygon points="419.16 432.15 410.89 435.1 382.82 445.13 370.25 449.63 365.77 437.13 374.79 433.9 403.93 423.49 414.68 419.64 419.16 432.15"/><path class="cls-10" d="M403.93,423.49,374.8,433.9a1.4,1.4,0,0,0-.16-.2L394,426.81c-38.11-61.93-70.42-89.53-82.32-98.43.35-.44.73-.86,1.08-1.31,1.44-1.75,2.86-3.52,4.26-5.27C320.34,324,357.9,348.71,403.93,423.49Z"/><path class="cls-10" d="M311,401v61.54c-3.23-.94-6.38-1.93-9.38-3V404.33a53.16,53.16,0,0,0-7.15-3.13,9.08,9.08,0,0,1-4.55-3.22,9.37,9.37,0,0,1-1.27-8.1,8.93,8.93,0,0,1,2.74-4.22,6.87,6.87,0,0,1,4.46-1.49h3.29a9.87,9.87,0,0,0-1.12,2.39,9.38,9.38,0,0,0,1.28,8.1,9,9,0,0,0,4.54,3.21A54.58,54.58,0,0,1,311,401Z"/><path class="cls-1" d="M394.31,427.89l-19.37,6.89c-11.32-15-29-34.95-50.07-46.87l-.18-.09A83.88,83.88,0,0,0,309,380.87a8.74,8.74,0,0,0-3.86-.41,9,9,0,0,0-6.19,3.71h-3.9a6.7,6.7,0,0,0-3.54.9,8.91,8.91,0,0,0-1.61,13.86,8.82,8.82,0,0,0,3.72,2.16,58.45,58.45,0,0,1,8,3.24v55.24a248.77,248.77,0,0,1-26-10.1,54.07,54.07,0,0,0-94.41,0,244.69,244.69,0,0,1-29.1,11.07c-2.42.76-4.94,1.47-7.49,2.15V401a59,59,0,0,1,7.72-3.15,9.52,9.52,0,0,0,4.33-2.67,8.86,8.86,0,0,0-9.34-14.33c-2.56.82-5.09,1.79-7.61,2.88-2.75,1.21-5.47,2.57-8.13,4.07-.27.16-.56.31-.83.49-20.81,12-38.33,31.78-49.56,46.6l-5.78-2.06L52,424.48c34-55.06,63.35-83,77.82-94.71,3.6-2.9,6.27-4.83,7.87-5.91,1.76,2.14,3.54,4.27,5.36,6.37,3.45,4,6.83,7.76,10.23,11.26a201.72,201.72,0,0,0,17.56,16.41c2,1.64,4,3.21,6,4.74,3.78,2.86,7.61,5.47,11.52,7.93.58.38,1.18.73,1.78,1.11a82.2,82.2,0,0,0,14.18,7c1.07.43,2.16.78,3.23,1.13A62.1,62.1,0,0,0,227.06,383a61.4,61.4,0,0,0,14.68-1.82c1.62-.4,3.24-.86,4.87-1.4a71.83,71.83,0,0,0,8.49-3.43c1-.51,2.07-1,3.11-1.57q4-2.1,7.85-4.5c3.91-2.37,7.74-5,11.54-7.84q2.94-2.16,5.8-4.54A187.82,187.82,0,0,0,301,341.49q5.42-5.65,10.74-12C323.69,338.36,356.09,366,394.31,427.89Z"/><path d="M366.59,89.25c-8.29-16.39-20.37-31.74-37-47A156.53,156.53,0,0,0,301,21.45,148.15,148.15,0,0,0,157.88,19.1q-2.32,1.23-4.59,2.53a0,0,0,0,0,0,0C124.45,37.93,101.83,62.1,85.93,93.59c-11.64,23-17.38,46.16-17.56,70.9-.11,20.58,4.48,41.16,14.92,66.72a277.09,277.09,0,0,0,13.64,28.9h.82v.54a288.14,288.14,0,0,0,29.36,48.1c3.48,4.7,7.12,9.33,10.84,13.89l.11.14c1.75,2.14,3.53,4.27,5.34,6.37l0,.05c3.41,4,6.78,7.73,10.15,11.21a201.43,201.43,0,0,0,17.52,16.41c2,1.64,3.95,3.21,5.94,4.74,3.77,2.86,7.59,5.47,11.49,7.93.57.38,1.17.73,1.77,1.11a81.61,81.61,0,0,0,14.15,7c1.06.42,2.15.78,3.21,1.13a60.77,60.77,0,0,0,39,0,70.88,70.88,0,0,0,8.47-3.43c1-.51,2.06-1,3.11-1.57,2.63-1.4,5.25-2.9,7.82-4.5,3.9-2.37,7.72-5,11.51-7.84q2.93-2.16,5.79-4.54a188.67,188.67,0,0,0,17.56-16.41q6-6.23,11.79-13.34c1.44-1.75,2.86-3.52,4.26-5.27,3.77-4.7,7.36-9.39,10.82-14.09a380.93,380.93,0,0,0,22.37-33.84c2.6-4.45,5-8.91,7.69-13.34v1.92h-.28c6.92-15.25,12.7-28.61,17.43-42.16,6-17.15,11.39-35.77,10.84-55.95C386.46,140.28,380.32,116.41,366.59,89.25Zm-9,124a274.17,274.17,0,0,1-13.82,33.09v1.32c-1.2,2.41-2.46,4.85-3.77,7.26s-2.57,4.74-3.92,7.09a384,384,0,0,1-37.39,53.63A200,200,0,0,1,275,340.29a137.06,137.06,0,0,1-23.28,16.41c-.69.4-1.35.75-2.06,1.13a52.31,52.31,0,0,1-14.55,5.34,42.41,42.41,0,0,1-16.61-.07h.17s-10.89-3.09-16.52-6.28c-.82-.44-1.64-.93-2.48-1.44a149.35,149.35,0,0,1-20.27-15A217.48,217.48,0,0,1,157,317.53a298.75,298.75,0,0,1-38.13-55.4v0a34.94,34.94,0,0,1-4.7-7.09c-1.29-2.42-2.53-4.85-2.33-7.29v0c-5.26-7.62-8.78-15.35-12-23.21-9.49-23.3-13.68-41.78-13.57-59.9.18-21.9,5.28-42.5,15.64-63,.22-.44.44-.86.66-1.28C115.09,76,132.1,56.6,153.27,42.58a0,0,0,0,1,0,0q3.9-2.6,8-5a0,0,0,0,0,0,0l1.58-.89c1.08-.6,2.19-1.2,3.3-1.79s2.08-1.09,3.15-1.58c1.75-.86,3.5-1.68,5.28-2.46.88-.39,1.79-.77,2.68-1.15,3.24-1.35,9.82-3.69,9.82-3.69h3.51A124.39,124.39,0,0,1,268.77,26c3.75,1.23,7.45,2.61,11.09,4.2.93.4,1.86.81,2.8,1.25,0,0,0,0,.06,0,1.13.53,2.23,1.05,3.34,1.6h0q4,2,7.84,4.25a0,0,0,0,1,0,0c2.68,1.55,5.28,3.2,7.84,4.94a135.81,135.81,0,0,1,16.15,13c14.67,13.65,25.26,27.26,32.38,41.56,12.11,24.4,17.48,45.51,16.91,66.42v.51C367.72,181,362.91,197.71,357.61,213.25Z"/><path class="cls-10" d="M62.21,426.81l19.31,6.89a.87.87,0,0,0-.15.2L52.23,423.49C95,354.07,130.39,327.78,138,322.64l.11.14c1.75,2.14,3.53,4.27,5.34,6.37l0,.05C130.77,338.9,99.21,366.68,62.21,426.81Z"/><path class="cls-10" d="M144.62,401v61.54c3.22-.94,6.37-1.93,9.37-3V404.33a53.16,53.16,0,0,1,7.15-3.13,9.08,9.08,0,0,0,4.55-3.22,9.4,9.4,0,0,0,1.28-8.1,9,9,0,0,0-2.75-4.22,6.87,6.87,0,0,0-4.46-1.49h-3.29a9.51,9.51,0,0,1,1.12,2.39,9.34,9.34,0,0,1-1.28,8.1,9,9,0,0,1-4.54,3.21A53.88,53.88,0,0,0,144.62,401Z"/><path class="cls-4" d="M423.46,458.35v6.45c-9-2.7-21.93-5.69-34.7-5.41l.09-4-1.31-2.15c-.31-.53-2.1-3.54-5.16-8.13l28.07-10Q416.87,446.07,423.46,458.35Z"/><path class="cls-4" d="M68.08,453.19l-1.35,2.2.09,4c-12.75-.24-25.63,2.71-34.68,5.41v-6.45Q38.75,446,45.2,435l28.09,10C70.21,449.65,68.39,452.68,68.08,453.19Z"/><polygon points="91.01 437.13 86.53 449.63 73.71 445.04 45.62 435.01 37.62 432.15 42.1 419.64 52.61 423.4 81.72 433.81 91.01 437.13"/><path class="cls-2" d="M280.45,460.24a43.41,43.41,0,0,0-1.91-5.67,50.07,50.07,0,0,0-3-6.18,53.84,53.84,0,0,0-94.14,0,49.8,49.8,0,0,0-2.95,6.16,48.43,48.43,0,0,0-1.88,5.64,52.33,52.33,0,0,0-2,14.31,53.87,53.87,0,0,0,107.73,0A52.22,52.22,0,0,0,280.45,460.24ZM228.54,510.6a36.06,36.06,0,0,1-28.27-58.54,33.27,33.27,0,0,1,4.55-4.71,34.62,34.62,0,0,1,7.18-4.92,36.07,36.07,0,0,1,33.06,0,34.68,34.68,0,0,1,7.19,4.92,31.63,31.63,0,0,1,4.54,4.71,36.06,36.06,0,0,1-28.25,58.54Z"/><path d="M179.65,459.87c-5.29-.23-10.72-.59-16.45-1.09,1.84-56.56-13.43-86.08-26.68-100.91a62.41,62.41,0,0,0-19.42-14.94c-1.11-.51-2.09-.95-2.9-1.25l-1.25-.47L116.31,325a66.14,66.14,0,0,1,18.15,9.09c.17.12.32.25.49.35l.32.22c1.92,1.37,3.64,2.72,5.33,4.17,1,.86,2,1.8,3.05,2.75a93.24,93.24,0,0,1,13.5,16.09,96.69,96.69,0,0,1,6,10.29l.08.59.44.37a137.14,137.14,0,0,1,10.23,28C178.54,415.19,180.48,436.36,179.65,459.87Z"/><path d="M279.5,459.87c5.29-.23,10.72-.59,16.45-1.09-1.84-56.56,13.43-86.08,26.68-100.91a62.41,62.41,0,0,1,19.42-14.94c1.11-.51,2.09-.95,2.9-1.25l1.26-.47L342.84,325a66.14,66.14,0,0,0-18.15,9.09c-.17.12-.32.25-.49.35l-.32.22c-1.92,1.37-3.64,2.72-5.33,4.17-1,.86-2,1.8-3.05,2.75A93.24,93.24,0,0,0,302,357.67,96.69,96.69,0,0,0,296,368l-.08.59-.44.37a137.74,137.74,0,0,0-10.23,28C280.61,415.19,278.67,436.36,279.5,459.87Z"/><path d="M224.77,415.61a124,124,0,0,1-29.23-3.43C169.93,406,155.26,393.5,154.65,393l13.22-11.89L161.26,387l6.58-6c2,1.67,49,40.36,123.88-1.07l10,14.09C272.09,410.5,245.88,415.61,224.77,415.61Z"/><text class="cls-11" transform="translate(434.18 230.82)">M<tspan class="cls-12" x="112.52" y="0">e</tspan><tspan x="195.57" y="0">r</tspan><tspan class="cls-13" x="259.35" y="0">c</tspan><tspan x="342.4" y="0">a</tspan><tspan class="cls-14" x="426.54" y="0">d</tspan><tspan x="504.63" y="0">o</tspan></text><text class="cls-15" transform="translate(529.03 341.93)">Exp<tspan class="cls-16" x="212.1" y="0">r</tspan><tspan class="cls-17" x="265.67" y="0">e</tspan><tspan class="cls-18" x="333.84" y="0">s</tspan><tspan class="cls-19" x="402.4" y="0">s</tspan><tspan x="468.97" y="0">o</tspan></text><text class="cls-20" transform="translate(608.84 437.14)">D<tspan class="cls-21" x="27.86" y="0">e</tspan><tspan class="cls-22" x="50.11" y="0">l</tspan><tspan class="cls-23" x="62.38" y="0">i</tspan><tspan class="cls-24" x="70.36" y="0">v</tspan><tspan class="cls-25" x="95.75" y="0">e</tspan><tspan x="118.64" y="0">ry un</tspan><tspan class="cls-26" x="216.33" y="0">i</tspan><tspan class="cls-27" x="224.31" y="0">v</tspan><tspan class="cls-25" x="249.7" y="0">e</tspan><tspan class="cls-28" x="272.59" y="0">r</tspan><tspan x="290.83" y="0">s</tspan><tspan class="cls-29" x="313.75" y="0">a</tspan><tspan x="336.03" y="0">l</tspan></text></g></g></svg>